<mxfile host="65bd71144e">
    <diagram id="tOmRbC5u8OFp-O9AaoKW" name="Page-1">
        <mxGraphModel dx="640" dy="548" grid="1" gridSize="10" guides="1" tooltips="1" connect="1" arrows="1" fold="1" page="1" pageScale="1" pageWidth="850" pageHeight="1100" math="0" shadow="0">
            <root>
                <mxCell id="0"/>
                <mxCell id="1" parent="0"/>
                <mxCell id="11" value="" style="group" vertex="1" connectable="0" parent="1">
                    <mxGeometry x="40" y="277.36" width="150" height="190" as="geometry"/>
                </mxCell>
                <mxCell id="7" value="Deployment Target" style="verticalAlign=top;align=center;shape=cube;size=10;direction=south;fontStyle=0;html=1;boundedLbl=1;spacingLeft=5;fillColor=none;fontColor=#006EAF;strokeColor=#006EAF;" vertex="1" parent="11">
                    <mxGeometry width="150" height="190" as="geometry"/>
                </mxCell>
                <mxCell id="4" value="«service»&lt;br&gt;&lt;span&gt;Service 1&lt;/span&gt;" style="html=1;dropTarget=0;fillColor=none;fontColor=#006EAF;strokeColor=#006EAF;fontStyle=0" vertex="1" parent="11">
                    <mxGeometry x="10" y="40" width="120" height="60" as="geometry"/>
                </mxCell>
                <mxCell id="5" value="" style="shape=module;jettyWidth=8;jettyHeight=4;fillColor=none;fontColor=#006EAF;strokeColor=#006EAF;fontStyle=0" vertex="1" parent="4">
                    <mxGeometry x="1" width="20" height="20" relative="1" as="geometry">
                        <mxPoint x="-27" y="7" as="offset"/>
                    </mxGeometry>
                </mxCell>
                <mxCell id="6" value="Database" style="shape=cylinder3;whiteSpace=wrap;html=1;boundedLbl=1;backgroundOutline=1;size=15;fillColor=none;fontColor=#006EAF;strokeColor=#006EAF;fontStyle=0" vertex="1" parent="11">
                    <mxGeometry x="35" y="120" width="70" height="60" as="geometry"/>
                </mxCell>
                <mxCell id="9" style="edgeStyle=none;html=1;startArrow=open;startFill=0;endArrow=open;endFill=0;fillColor=#1ba1e2;strokeColor=#006EAF;fontColor=#006EAF;fontStyle=0" edge="1" parent="11" source="4" target="6">
                    <mxGeometry relative="1" as="geometry"/>
                </mxCell>
                <mxCell id="12" value="" style="group" vertex="1" connectable="0" parent="1">
                    <mxGeometry x="200" y="277.36" width="150" height="190" as="geometry"/>
                </mxCell>
                <mxCell id="13" value="Deployment Target" style="verticalAlign=top;align=center;shape=cube;size=10;direction=south;fontStyle=0;html=1;boundedLbl=1;spacingLeft=5;fillColor=none;fontColor=#006EAF;strokeColor=#006EAF;" vertex="1" parent="12">
                    <mxGeometry width="150" height="190" as="geometry"/>
                </mxCell>
                <mxCell id="14" value="«service»&lt;br&gt;&lt;span&gt;Service 2&lt;/span&gt;" style="html=1;dropTarget=0;fillColor=none;fontColor=#006EAF;strokeColor=#006EAF;fontStyle=0" vertex="1" parent="12">
                    <mxGeometry x="10" y="40" width="120" height="60" as="geometry"/>
                </mxCell>
                <mxCell id="15" value="" style="shape=module;jettyWidth=8;jettyHeight=4;fillColor=none;fontColor=#006EAF;strokeColor=#006EAF;fontStyle=0" vertex="1" parent="14">
                    <mxGeometry x="1" width="20" height="20" relative="1" as="geometry">
                        <mxPoint x="-27" y="7" as="offset"/>
                    </mxGeometry>
                </mxCell>
                <mxCell id="16" value="Database" style="shape=cylinder3;whiteSpace=wrap;html=1;boundedLbl=1;backgroundOutline=1;size=15;fillColor=none;fontColor=#006EAF;strokeColor=#006EAF;fontStyle=0" vertex="1" parent="12">
                    <mxGeometry x="35" y="120" width="70" height="60" as="geometry"/>
                </mxCell>
                <mxCell id="17" style="edgeStyle=none;html=1;startArrow=open;startFill=0;endArrow=open;endFill=0;fillColor=#1ba1e2;strokeColor=#006EAF;fontColor=#006EAF;fontStyle=0" edge="1" parent="12" source="14" target="16">
                    <mxGeometry relative="1" as="geometry"/>
                </mxCell>
                <mxCell id="18" value="" style="group" vertex="1" connectable="0" parent="1">
                    <mxGeometry x="360" y="277.36" width="150" height="190" as="geometry"/>
                </mxCell>
                <mxCell id="19" value="Deployment Target" style="verticalAlign=top;align=center;shape=cube;size=10;direction=south;fontStyle=0;html=1;boundedLbl=1;spacingLeft=5;fillColor=none;fontColor=#006EAF;strokeColor=#006EAF;" vertex="1" parent="18">
                    <mxGeometry width="150" height="190" as="geometry"/>
                </mxCell>
                <mxCell id="20" value="«service»&lt;br&gt;&lt;span&gt;Service 3&lt;/span&gt;" style="html=1;dropTarget=0;fillColor=none;fontColor=#006EAF;strokeColor=#006EAF;fontStyle=0" vertex="1" parent="18">
                    <mxGeometry x="10" y="40" width="120" height="60" as="geometry"/>
                </mxCell>
                <mxCell id="21" value="" style="shape=module;jettyWidth=8;jettyHeight=4;fillColor=none;fontColor=#006EAF;strokeColor=#006EAF;fontStyle=0" vertex="1" parent="20">
                    <mxGeometry x="1" width="20" height="20" relative="1" as="geometry">
                        <mxPoint x="-27" y="7" as="offset"/>
                    </mxGeometry>
                </mxCell>
                <mxCell id="22" value="Database" style="shape=cylinder3;whiteSpace=wrap;html=1;boundedLbl=1;backgroundOutline=1;size=15;fillColor=none;fontColor=#006EAF;strokeColor=#006EAF;fontStyle=0" vertex="1" parent="18">
                    <mxGeometry x="35" y="120" width="70" height="60" as="geometry"/>
                </mxCell>
                <mxCell id="23" style="edgeStyle=none;html=1;startArrow=open;startFill=0;endArrow=open;endFill=0;fillColor=#1ba1e2;strokeColor=#006EAF;fontColor=#006EAF;fontStyle=0" edge="1" parent="18" source="20" target="22">
                    <mxGeometry relative="1" as="geometry"/>
                </mxCell>
                <mxCell id="24" value="" style="group" vertex="1" connectable="0" parent="1">
                    <mxGeometry x="520" y="277.36" width="150" height="190" as="geometry"/>
                </mxCell>
                <mxCell id="25" value="Deployment Target" style="verticalAlign=top;align=center;shape=cube;size=10;direction=south;fontStyle=0;html=1;boundedLbl=1;spacingLeft=5;fillColor=none;fontColor=#006EAF;strokeColor=#006EAF;" vertex="1" parent="24">
                    <mxGeometry width="150" height="190" as="geometry"/>
                </mxCell>
                <mxCell id="26" value="«service»&lt;br&gt;&lt;span&gt;Service 4&lt;/span&gt;" style="html=1;dropTarget=0;fillColor=none;fontColor=#006EAF;strokeColor=#006EAF;fontStyle=0" vertex="1" parent="24">
                    <mxGeometry x="10" y="40" width="120" height="60" as="geometry"/>
                </mxCell>
                <mxCell id="27" value="" style="shape=module;jettyWidth=8;jettyHeight=4;fillColor=none;fontColor=#006EAF;strokeColor=#006EAF;fontStyle=0" vertex="1" parent="26">
                    <mxGeometry x="1" width="20" height="20" relative="1" as="geometry">
                        <mxPoint x="-27" y="7" as="offset"/>
                    </mxGeometry>
                </mxCell>
                <mxCell id="28" value="Database" style="shape=cylinder3;whiteSpace=wrap;html=1;boundedLbl=1;backgroundOutline=1;size=15;fillColor=none;fontColor=#006EAF;strokeColor=#006EAF;fontStyle=0" vertex="1" parent="24">
                    <mxGeometry x="35" y="120" width="70" height="60" as="geometry"/>
                </mxCell>
                <mxCell id="29" style="edgeStyle=none;html=1;startArrow=open;startFill=0;endArrow=open;endFill=0;fillColor=#1ba1e2;strokeColor=#006EAF;fontColor=#006EAF;fontStyle=0" edge="1" parent="24" source="26" target="28">
                    <mxGeometry relative="1" as="geometry"/>
                </mxCell>
                <mxCell id="30" value="«queue»&lt;br&gt;&lt;span&gt;Messaging Queue&lt;/span&gt;" style="html=1;dropTarget=0;fontColor=#006EAF;fillColor=none;fontStyle=0;strokeColor=#006EAF;" vertex="1" parent="1">
                    <mxGeometry x="260" y="517.3600000000001" width="140" height="60" as="geometry"/>
                </mxCell>
                <mxCell id="31" value="" style="shape=module;jettyWidth=8;jettyHeight=4;fontColor=#ffffff;fillColor=none;strokeColor=#006EAF;" vertex="1" parent="30">
                    <mxGeometry x="1" width="20" height="20" relative="1" as="geometry">
                        <mxPoint x="-27" y="7" as="offset"/>
                    </mxGeometry>
                </mxCell>
                <mxCell id="32" style="edgeStyle=none;html=1;exitX=0;exitY=0;exitDx=190;exitDy=80;exitPerimeter=0;fontColor=#006EAF;startArrow=open;startFill=0;endArrow=open;endFill=0;fillColor=#1ba1e2;strokeColor=#006EAF;" edge="1" parent="1" source="13" target="30">
                    <mxGeometry relative="1" as="geometry"/>
                </mxCell>
                <mxCell id="33" style="edgeStyle=none;html=1;fontColor=#006EAF;startArrow=open;startFill=0;endArrow=open;endFill=0;fillColor=#1ba1e2;strokeColor=#006EAF;" edge="1" parent="1" source="19" target="30">
                    <mxGeometry relative="1" as="geometry"/>
                </mxCell>
                <mxCell id="34" style="edgeStyle=none;html=1;fontColor=#006EAF;startArrow=open;startFill=0;endArrow=open;endFill=0;entryX=0;entryY=0;entryDx=190;entryDy=80;entryPerimeter=0;fillColor=#1ba1e2;strokeColor=#006EAF;" edge="1" parent="1" source="7" target="25">
                    <mxGeometry relative="1" as="geometry">
                        <mxPoint x="420" y="657.3600000000001" as="targetPoint"/>
                        <Array as="points">
                            <mxPoint x="115" y="597.3600000000001"/>
                            <mxPoint x="590" y="597.3600000000001"/>
                        </Array>
                    </mxGeometry>
                </mxCell>
                <mxCell id="42" value="" style="group" vertex="1" connectable="0" parent="1">
                    <mxGeometry x="40" y="163.68" width="630" height="70" as="geometry"/>
                </mxCell>
                <mxCell id="43" value="API Layer" style="verticalAlign=top;align=center;shape=cube;size=10;direction=south;fontStyle=0;html=1;boundedLbl=1;spacingLeft=5;fillColor=none;fontColor=#006EAF;strokeColor=#006EAF;" vertex="1" parent="42">
                    <mxGeometry y="-3.68" width="630.0000000000001" height="73.68" as="geometry"/>
                </mxCell>
                <mxCell id="48" value="" style="group" vertex="1" connectable="0" parent="1">
                    <mxGeometry x="290" y="43.68000000000001" width="150" height="70" as="geometry"/>
                </mxCell>
                <mxCell id="49" value="Client" style="verticalAlign=top;align=center;shape=cube;size=10;direction=south;fontStyle=0;html=1;boundedLbl=1;spacingLeft=5;fillColor=none;fontColor=#006EAF;strokeColor=#006EAF;" vertex="1" parent="48">
                    <mxGeometry y="-3.68" width="150" height="73.68" as="geometry"/>
                </mxCell>
                <mxCell id="50" style="edgeStyle=none;html=1;exitX=0;exitY=0;exitDx=73.68;exitDy=80;exitPerimeter=0;fontColor=#006EAF;startArrow=open;startFill=0;endArrow=open;endFill=0;fillColor=#1ba1e2;strokeColor=#006EAF;" edge="1" parent="1" source="49">
                    <mxGeometry relative="1" as="geometry">
                        <mxPoint x="360" y="163.68" as="targetPoint"/>
                    </mxGeometry>
                </mxCell>
                <mxCell id="51" style="edgeStyle=none;html=1;entryX=0;entryY=0;entryDx=0;entryDy=70;entryPerimeter=0;fontColor=#006EAF;startArrow=open;startFill=0;endArrow=open;endFill=0;fillColor=#1ba1e2;strokeColor=#006EAF;" edge="1" parent="1" source="43" target="7">
                    <mxGeometry relative="1" as="geometry"/>
                </mxCell>
                <mxCell id="52" style="edgeStyle=none;html=1;entryX=0;entryY=0;entryDx=0;entryDy=70;entryPerimeter=0;fontColor=#006EAF;startArrow=open;startFill=0;endArrow=open;endFill=0;fillColor=#1ba1e2;strokeColor=#006EAF;" edge="1" parent="1" source="43" target="13">
                    <mxGeometry relative="1" as="geometry"/>
                </mxCell>
                <mxCell id="53" style="edgeStyle=none;html=1;entryX=0;entryY=0;entryDx=0;entryDy=70;entryPerimeter=0;fontColor=#006EAF;startArrow=open;startFill=0;endArrow=open;endFill=0;fillColor=#1ba1e2;strokeColor=#006EAF;" edge="1" parent="1" source="43" target="19">
                    <mxGeometry relative="1" as="geometry"/>
                </mxCell>
                <mxCell id="54" style="edgeStyle=none;html=1;entryX=0;entryY=0;entryDx=0;entryDy=70;entryPerimeter=0;fontColor=#006EAF;startArrow=open;startFill=0;endArrow=open;endFill=0;fillColor=#1ba1e2;strokeColor=#006EAF;" edge="1" parent="1" source="43" target="25">
                    <mxGeometry relative="1" as="geometry"/>
                </mxCell>
            </root>
        </mxGraphModel>
    </diagram>
</mxfile>